<?xml version="1.0" encoding="UTF-8"?>
<svg id="Layer_2" data-name="Layer 2" xmlns="http://www.w3.org/2000/svg" width="475.85" height="47.49" viewBox="0 0 475.85 47.49">
  <defs>
    <style>
      .cls-1 {
        fill: #231f20;
      }

      .cls-2 {
        isolation: isolate;
      }
    </style>
  </defs>
  <g id="Layer_2-2" data-name="Layer 2">
    <g id="Layer_1-2" data-name="Layer 1-2">
      <g class="cls-2">
        <g class="cls-2">
          <path class="cls-1" d="M25.67,6.33c-.12,1.1-.19,2.16-.24,3.19-.04,1.03-.06,1.82-.06,2.36,0,.69.01,1.34.04,1.95.03.61.06,1.14.09,1.6h-1c-.2-2.02-.48-3.62-.82-4.79-.35-1.17-.95-2.02-1.82-2.54-.87-.52-2.21-.78-4.03-.78h-2.34v24.68c0,1.16.11,2.02.33,2.6.22.58.64.97,1.28,1.17.64.2,1.56.33,2.78.39v.87c-.75-.06-1.71-.09-2.86-.11-1.16-.01-2.33-.02-3.51-.02-1.3,0-2.52,0-3.67.02-1.14.01-2.06.05-2.75.11v-.87c1.21-.06,2.14-.19,2.78-.39.64-.2,1.06-.59,1.28-1.17.22-.58.33-1.45.33-2.6V7.33h-2.34c-1.79,0-3.13.26-4.01.78-.88.52-1.5,1.37-1.84,2.54-.35,1.17-.62,2.77-.82,4.79h-1c.06-.46.09-1,.11-1.6.01-.61.02-1.26.02-1.95,0-.55-.02-1.34-.07-2.36-.04-1.03-.12-2.09-.24-3.19,1.21.03,2.54.06,3.97.09,1.43.03,2.87.04,4.32.04h7.87c1.43,0,2.87-.01,4.32-.04,1.45-.03,2.76-.06,3.95-.09Z"/>
          <path class="cls-1" d="M28.75,37.04v-.87c.98-.06,1.73-.17,2.23-.35.51-.17.85-.52,1.02-1.04s.26-1.3.26-2.34V10.93c0-1.07-.09-1.86-.26-2.36-.17-.5-.51-.85-1.02-1.04-.51-.19-1.25-.3-2.23-.33v-.87c.61.03,1.4.06,2.39.09.98.03,2.04.04,3.17.04,1.01,0,2.02-.01,3.01-.04,1-.03,1.83-.06,2.49-.09v.87c-.98.03-1.73.14-2.23.33-.51.19-.85.54-1.02,1.04-.17.51-.26,1.29-.26,2.36v21.51c0,1.04.09,1.82.26,2.34.17.52.51.87,1.02,1.04.51.17,1.25.29,2.23.35v.87c-.67-.06-1.5-.09-2.49-.11s-2-.02-3.01-.02c-1.13,0-2.18,0-3.17.02-.98.01-1.78.05-2.39.11ZM34.78,22.03v-.87h17.13v.87h-17.13ZM46.88,37.04v-.87c.98-.06,1.73-.17,2.23-.35.51-.17.85-.52,1.02-1.04.17-.52.26-1.3.26-2.34V10.93c0-1.07-.09-1.86-.26-2.36-.17-.5-.51-.85-1.02-1.04-.51-.19-1.25-.3-2.23-.33v-.87c.66.03,1.5.06,2.52.09,1.01.03,2.01.04,2.99.04,1.13,0,2.18-.01,3.17-.04.98-.03,1.78-.06,2.39-.09v.87c-.98.03-1.73.14-2.23.33-.51.19-.85.54-1.02,1.04-.17.51-.26,1.29-.26,2.36v21.51c0,1.04.09,1.82.26,2.34s.51.87,1.02,1.04c.51.17,1.25.29,2.23.35v.87c-.61-.06-1.4-.09-2.39-.11s-2.04-.02-3.17-.02c-.98,0-1.98,0-2.99.02-1.01.01-1.85.05-2.52.11Z"/>
          <path class="cls-1" d="M83.23,6.33c-.12,1.01-.2,2-.24,2.95s-.06,1.68-.06,2.17c0,.52.01,1.02.04,1.5.03.48.06.88.09,1.19h-1c-.17-1.71-.42-3.06-.74-4.05-.32-1-.86-1.71-1.63-2.12-.77-.42-1.92-.63-3.45-.63h-3.6c-.98,0-1.73.08-2.23.24-.51.16-.85.49-1.02,1-.17.51-.26,1.29-.26,2.36v21.51c0,1.04.09,1.82.26,2.34.17.52.51.86,1.02,1.02.51.16,1.25.24,2.23.24h3.17c1.82,0,3.2-.25,4.14-.74.94-.49,1.62-1.29,2.04-2.41.42-1.11.73-2.62.93-4.53h1c-.09.78-.13,1.82-.13,3.12,0,.55.02,1.34.06,2.36.04,1.03.12,2.09.24,3.19-1.47-.06-3.14-.09-4.99-.11-1.85-.01-3.5-.02-4.94-.02h-2.45c-1,0-2.07,0-3.23.02-1.16.01-2.33.03-3.51.04-1.19.02-2.31.04-3.38.07v-.87c.98-.06,1.73-.17,2.23-.35.51-.17.85-.52,1.02-1.04s.26-1.3.26-2.34V10.93c0-1.07-.09-1.86-.26-2.36-.17-.5-.51-.85-1.02-1.04-.51-.19-1.25-.3-2.23-.33v-.87c1.07.03,2.2.05,3.38.07,1.19.01,2.36.03,3.51.04,1.16.01,2.23.02,3.23.02h2.45c1.33,0,2.84,0,4.53-.02,1.69-.01,3.2-.05,4.53-.11ZM75.77,21.16v.87h-7.94v-.87h7.94ZM77.02,15.44c-.12,1.65-.17,2.91-.15,3.77.01.87.02,1.66.02,2.39s.01,1.52.04,2.38c.03.87.1,2.12.22,3.77h-1c-.12-.92-.25-1.83-.41-2.71-.16-.88-.51-1.6-1.04-2.17-.54-.56-1.44-.85-2.71-.85v-.87c.95,0,1.68-.2,2.19-.59s.87-.89,1.11-1.5c.23-.61.39-1.24.48-1.89.09-.65.17-1.24.26-1.76h1Z"/>
          <path class="cls-1" d="M132.93,6.33v.87c-.98.03-1.73.14-2.23.33-.51.19-.85.54-1.02,1.04-.17.51-.26,1.29-.26,2.36v21.51c0,1.04.09,1.82.26,2.34.17.52.51.87,1.02,1.04.51.17,1.25.29,2.23.35v.87c-.67-.06-1.5-.09-2.49-.11s-2-.02-3.01-.02c-1.13,0-2.18,0-3.17.02-.98.01-1.78.05-2.39.11v-.87c.98-.06,1.73-.17,2.23-.35.51-.17.85-.52,1.02-1.04.17-.52.26-1.3.26-2.34V8.59l.17.13-10.63,28.54h-.69l-10.93-28.15v22.9c0,1.04.09,1.86.28,2.45.19.59.56,1.01,1.13,1.26.56.25,1.41.4,2.54.46v.87c-.52-.06-1.2-.09-2.04-.11-.84-.01-1.63-.02-2.39-.02s-1.45,0-2.19.02-1.35.05-1.84.11v-.87c.98-.06,1.73-.21,2.23-.46.51-.25.85-.66,1.02-1.26s.26-1.41.26-2.45V10.93c0-1.07-.09-1.86-.26-2.36-.17-.5-.51-.85-1.02-1.04-.51-.19-1.25-.3-2.23-.33v-.87c.49.03,1.11.06,1.84.09.74.03,1.47.04,2.19.04.64,0,1.29-.01,1.97-.04.68-.03,1.25-.06,1.71-.09l9.84,25.94-.74.35,9.76-26.15h2.04c1.01,0,2.02-.01,3.01-.04,1-.03,1.83-.06,2.49-.09Z"/>
          <path class="cls-1" d="M148.76,6.11l10.58,27.28c.43,1.1.92,1.83,1.47,2.19.55.36,1.06.56,1.52.59v.87c-.58-.06-1.29-.09-2.13-.11-.84-.01-1.68-.02-2.52-.02-1.13,0-2.18,0-3.17.02-.98.01-1.78.05-2.39.11v-.87c1.47-.06,2.41-.31,2.82-.76.4-.45.32-1.41-.26-2.88l-8.07-21.55.69-.56-7.55,19.6c-.46,1.16-.74,2.13-.82,2.93-.09.8,0,1.42.24,1.89.25.46.67.8,1.26,1,.59.2,1.34.32,2.23.35v.87c-.81-.06-1.66-.09-2.54-.11-.88-.01-1.7-.02-2.45-.02s-1.34,0-1.84.02c-.51.01-.98.05-1.41.11v-.87c.58-.14,1.17-.48,1.78-1.02.61-.53,1.16-1.45,1.65-2.75l10.19-26.28h.69ZM154.05,24.55v.87h-12.92l.43-.87h12.49Z"/>
          <path class="cls-1" d="M190.26,6.33v.87c-.98.03-1.73.17-2.23.43-.51.26-.85.68-1.02,1.26-.17.58-.26,1.4-.26,2.47v25.89h-1l-18.22-28.15v22.9c0,1.04.09,1.86.28,2.45.19.59.56,1.01,1.13,1.26.56.25,1.41.4,2.54.46v.87c-.52-.06-1.2-.09-2.04-.11-.84-.01-1.63-.02-2.39-.02s-1.45,0-2.19.02-1.35.05-1.84.11v-.87c.98-.06,1.73-.21,2.23-.46.51-.25.85-.66,1.02-1.26s.26-1.41.26-2.45V10.93c0-1.07-.09-1.86-.26-2.36-.17-.5-.51-.85-1.02-1.04-.51-.19-1.25-.3-2.23-.33v-.87c.49.03,1.11.06,1.84.09.74.03,1.47.04,2.19.04.64,0,1.24-.01,1.82-.04.58-.03,1.1-.06,1.56-.09l15.31,23.59V11.36c0-1.07-.09-1.89-.28-2.47-.19-.58-.56-1-1.13-1.26-.56-.26-1.41-.4-2.54-.43v-.87c.52.03,1.21.06,2.06.09.85.03,1.64.04,2.36.04s1.5-.01,2.23-.04c.74-.03,1.34-.06,1.8-.09Z"/>
          <path class="cls-1" d="M202.93,5.85c1.45,0,2.54.17,3.3.5.75.33,1.42.7,2,1.11.35.2.63.35.85.46.22.1.43.15.63.15.29,0,.5-.16.63-.48.13-.32.24-.79.33-1.43h1c-.03.49-.07,1.08-.11,1.76-.04.68-.07,1.58-.09,2.69-.02,1.11-.02,2.58-.02,4.4h-1c-.09-1.39-.39-2.72-.91-3.99-.52-1.27-1.28-2.31-2.28-3.12s-2.31-1.21-3.92-1.21c-1.53,0-2.8.46-3.79,1.39-1,.92-1.5,2.14-1.5,3.64,0,1.3.33,2.39,1,3.27.67.88,1.55,1.68,2.67,2.39,1.11.71,2.32,1.47,3.62,2.28,1.5.93,2.84,1.84,4.01,2.75,1.17.91,2.1,1.92,2.78,3.01.68,1.1,1.02,2.43,1.02,3.99,0,1.85-.42,3.38-1.26,4.6-.84,1.21-1.95,2.12-3.34,2.73-1.39.61-2.92.91-4.6.91-1.53,0-2.75-.17-3.64-.52-.9-.35-1.66-.71-2.3-1.08-.64-.41-1.13-.61-1.47-.61-.29,0-.5.16-.63.48-.13.32-.24.8-.33,1.43h-1c.06-.61.09-1.32.11-2.15.01-.82.03-1.9.04-3.23.01-1.33.02-3.01.02-5.03h1c.12,1.74.44,3.35.98,4.86.53,1.5,1.36,2.71,2.47,3.62,1.11.91,2.59,1.37,4.45,1.37.95,0,1.86-.2,2.71-.59.85-.39,1.55-1.01,2.1-1.87.55-.85.82-1.96.82-3.32,0-1.19-.28-2.22-.85-3.1-.56-.88-1.35-1.71-2.36-2.47-1.01-.77-2.2-1.55-3.56-2.36-1.36-.84-2.63-1.69-3.82-2.56-1.19-.87-2.13-1.87-2.84-3.01-.71-1.14-1.06-2.52-1.06-4.14,0-1.71.38-3.12,1.15-4.23.77-1.11,1.77-1.94,3.01-2.47,1.24-.53,2.57-.8,3.99-.8Z"/>
          <path class="cls-1" d="M228.12,6.33v.87c-.98.03-1.73.14-2.23.33-.51.19-.85.54-1.02,1.04-.17.51-.26,1.29-.26,2.36v21.51c0,1.04.09,1.82.26,2.34.17.52.51.87,1.02,1.04.51.17,1.25.29,2.23.35v.87c-.67-.06-1.5-.09-2.49-.11s-2-.02-3.01-.02c-1.13,0-2.18,0-3.17.02-.98.01-1.78.05-2.39.11v-.87c.98-.06,1.73-.17,2.23-.35.51-.17.85-.52,1.02-1.04s.26-1.3.26-2.34V10.93c0-1.07-.09-1.86-.26-2.36-.17-.5-.51-.85-1.02-1.04-.51-.19-1.25-.3-2.23-.33v-.87c.61.03,1.4.06,2.39.09.98.03,2.04.04,3.17.04,1.01,0,2.02-.01,3.01-.04,1-.03,1.83-.06,2.49-.09Z"/>
          <path class="cls-1" d="M245.69,5.72c2.75,0,5.15.62,7.22,1.87s3.67,3.03,4.81,5.36,1.71,5.15,1.71,8.48-.58,6.07-1.76,8.5-2.8,4.32-4.88,5.68c-2.08,1.36-4.47,2.04-7.16,2.04s-5.15-.62-7.22-1.87c-2.07-1.24-3.67-3.04-4.81-5.38-1.14-2.34-1.71-5.16-1.71-8.46s.59-6.07,1.78-8.5,2.81-4.32,4.88-5.68c2.07-1.36,4.45-2.04,7.13-2.04ZM245.51,6.5c-1.88,0-3.51.65-4.9,1.95-1.39,1.3-2.46,3.09-3.23,5.38-.77,2.28-1.15,4.93-1.15,7.94s.43,5.73,1.28,8c.85,2.27,2.01,4.02,3.47,5.25,1.46,1.23,3.07,1.84,4.84,1.84,1.88,0,3.51-.65,4.9-1.95s2.46-3.1,3.23-5.4c.77-2.3,1.15-4.94,1.15-7.92s-.43-5.77-1.28-8.02c-.85-2.26-2-4-3.45-5.23-1.45-1.23-3.07-1.84-4.86-1.84Z"/>
          <path class="cls-1" d="M290.45,6.33v.87c-.98.03-1.73.17-2.23.43-.51.26-.85.68-1.02,1.26-.17.58-.26,1.4-.26,2.47v25.89h-1l-18.22-28.15v22.9c0,1.04.09,1.86.28,2.45.19.59.56,1.01,1.13,1.26.56.25,1.41.4,2.54.46v.87c-.52-.06-1.2-.09-2.04-.11s-1.63-.02-2.39-.02-1.45,0-2.19.02c-.74.01-1.35.05-1.84.11v-.87c.98-.06,1.73-.21,2.23-.46.5-.25.85-.66,1.02-1.26s.26-1.41.26-2.45V10.93c0-1.07-.09-1.86-.26-2.36-.17-.5-.51-.85-1.02-1.04-.51-.19-1.25-.3-2.23-.33v-.87c.49.03,1.11.06,1.84.09.74.03,1.47.04,2.19.04.64,0,1.24-.01,1.82-.04.58-.03,1.1-.06,1.56-.09l15.31,23.59V11.36c0-1.07-.09-1.89-.28-2.47-.19-.58-.56-1-1.13-1.26-.56-.26-1.41-.4-2.54-.43v-.87c.52.03,1.21.06,2.06.09.85.03,1.64.04,2.36.04s1.5-.01,2.23-.04c.74-.03,1.34-.06,1.8-.09Z"/>
          <path class="cls-1" d="M338.76,6.33v.87c-.98.03-1.73.14-2.23.33-.51.19-.85.54-1.02,1.04-.17.51-.26,1.29-.26,2.36v21.51c0,1.04.09,1.82.26,2.34.17.52.51.87,1.02,1.04.51.17,1.25.29,2.23.35v.87c-.67-.06-1.5-.09-2.49-.11s-2-.02-3.01-.02c-1.13,0-2.18,0-3.17.02-.98.01-1.78.05-2.39.11v-.87c.98-.06,1.73-.17,2.23-.35.51-.17.85-.52,1.02-1.04s.26-1.3.26-2.34V8.59l.17.13-10.63,28.54h-.69l-10.93-28.15v22.9c0,1.04.09,1.86.28,2.45.19.59.56,1.01,1.13,1.26.56.25,1.41.4,2.54.46v.87c-.52-.06-1.2-.09-2.04-.11s-1.63-.02-2.39-.02-1.45,0-2.19.02c-.74.01-1.35.05-1.84.11v-.87c.98-.06,1.73-.21,2.23-.46.5-.25.85-.66,1.02-1.26s.26-1.41.26-2.45V10.93c0-1.07-.09-1.86-.26-2.36-.17-.5-.51-.85-1.02-1.04-.51-.19-1.25-.3-2.23-.33v-.87c.49.03,1.11.06,1.84.09.74.03,1.47.04,2.19.04.64,0,1.29-.01,1.97-.04.68-.03,1.25-.06,1.71-.09l9.84,25.94-.74.35,9.76-26.15h2.04c1.01,0,2.02-.01,3.01-.04,1-.03,1.83-.06,2.49-.09Z"/>
          <path class="cls-1" d="M354.59,6.11l10.58,27.28c.43,1.1.92,1.83,1.47,2.19.55.36,1.05.56,1.52.59v.87c-.58-.06-1.29-.09-2.12-.11-.84-.01-1.68-.02-2.52-.02-1.13,0-2.18,0-3.17.02-.98.01-1.78.05-2.38.11v-.87c1.47-.06,2.41-.31,2.82-.76s.32-1.41-.26-2.88l-8.07-21.55.69-.56-7.55,19.6c-.46,1.16-.74,2.13-.82,2.93-.09.8,0,1.42.24,1.89.25.46.67.8,1.26,1,.59.2,1.34.32,2.23.35v.87c-.81-.06-1.66-.09-2.54-.11-.88-.01-1.7-.02-2.45-.02s-1.34,0-1.84.02c-.51.01-.98.05-1.41.11v-.87c.58-.14,1.17-.48,1.78-1.02.61-.53,1.16-1.45,1.65-2.75l10.19-26.28h.7ZM359.88,24.55v.87h-12.93l.44-.87h12.49Z"/>
          <path class="cls-1" d="M368.86,6.33c.61.03,1.4.06,2.39.09.98.03,1.95.04,2.91.04,1.36,0,2.66-.01,3.9-.04,1.24-.03,2.12-.04,2.65-.04,2.34,0,4.29.33,5.83,1,1.55.67,2.7,1.57,3.47,2.71.77,1.14,1.15,2.42,1.15,3.84,0,.87-.17,1.79-.52,2.78-.35.98-.95,1.91-1.8,2.78-.85.87-2.02,1.58-3.49,2.15s-3.34.85-5.59.85h-4.16v-.87h3.73c2.05,0,3.62-.33,4.71-.98,1.08-.65,1.82-1.52,2.21-2.6s.58-2.29.58-3.62c0-2.28-.54-4.06-1.63-5.31s-2.94-1.89-5.57-1.89c-1.33,0-2.2.25-2.6.74-.41.49-.61,1.49-.61,2.99v21.51c0,1.04.09,1.82.26,2.34.17.52.51.87,1.02,1.04.51.17,1.25.29,2.23.35v.87c-.67-.06-1.5-.09-2.49-.11-1-.01-2-.02-3.01-.02-1.13,0-2.18,0-3.17.02-.98.01-1.78.05-2.39.11v-.87c.98-.06,1.73-.17,2.23-.35.51-.17.85-.52,1.02-1.04s.26-1.3.26-2.34V10.93c0-1.07-.09-1.86-.26-2.36-.17-.5-.51-.85-1.02-1.04-.51-.19-1.25-.3-2.23-.33v-.87ZM375.75,21.73c1.56.06,2.79.12,3.69.2.9.07,1.63.14,2.19.2.56.06,1.11.13,1.63.22,1.94.32,3.33.9,4.18,1.76.85.85,1.48,2.18,1.89,3.97l1.08,4.42c.29,1.27.59,2.19.89,2.75s.77.83,1.41.8c.49-.03.9-.19,1.24-.48.33-.29.69-.68,1.06-1.17l.65.48c-.61.9-1.24,1.58-1.89,2.06-.65.48-1.57.72-2.75.72-1.07,0-2.01-.32-2.82-.95-.81-.64-1.42-1.88-1.82-3.73l-.95-4.34c-.26-1.24-.56-2.32-.89-3.23-.33-.91-.8-1.63-1.39-2.15-.59-.52-1.47-.78-2.62-.78h-4.68l-.09-.74Z"/>
          <path class="cls-1" d="M408.02,6.33v.87c-.98.03-1.73.14-2.23.33-.51.19-.85.54-1.02,1.04-.17.51-.26,1.29-.26,2.36v21.51c0,1.04.09,1.82.26,2.34.17.52.51.87,1.02,1.04.51.17,1.25.29,2.23.35v.87c-.67-.06-1.5-.09-2.49-.11-1-.01-2-.02-3.01-.02-1.13,0-2.18,0-3.17.02-.98.01-1.78.05-2.39.11v-.87c.98-.06,1.73-.17,2.23-.35.51-.17.85-.52,1.02-1.04s.26-1.3.26-2.34V10.93c0-1.07-.09-1.86-.26-2.36-.17-.5-.51-.85-1.02-1.04-.51-.19-1.25-.3-2.23-.33v-.87c.61.03,1.4.06,2.39.09.98.03,2.04.04,3.17.04,1.01,0,2.02-.01,3.01-.04,1-.03,1.83-.06,2.49-.09ZM421.81,6.33v.87c-.9.12-1.76.41-2.6.87-.84.46-1.68,1.23-2.52,2.3l-8.37,10.71.95-2.12,10.41,14.57c.49.72,1.03,1.29,1.6,1.69.58.41,1.32.72,2.21.95v.87c-.69-.06-1.55-.09-2.58-.11s-1.9-.02-2.62-.02c-.49,0-1.09,0-1.8.02-.71.01-1.6.05-2.67.11v-.87c.98-.06,1.6-.23,1.87-.52.26-.29.16-.77-.3-1.43l-6.33-9.54c-.58-.9-1.09-1.57-1.54-2.02s-.91-.74-1.39-.89c-.48-.14-1.08-.23-1.8-.26v-.87c1.21-.03,2.23-.27,3.06-.72s1.51-1.02,2.06-1.71l4.16-5.29c.95-1.21,1.6-2.24,1.95-3.08.35-.84.33-1.48-.04-1.93s-1.17-.69-2.38-.72v-.87c.55.03,1.11.05,1.69.07.58.01,1.15.03,1.71.04.56.01,1.09.02,1.58.02.75,0,1.45-.01,2.08-.04.64-.03,1.17-.06,1.61-.09Z"/>
          <path class="cls-1" d="M447.01,6.33c-.12,1.01-.2,2-.24,2.95s-.07,1.68-.07,2.17c0,.52.01,1.02.04,1.5.03.48.06.88.09,1.19h-1c-.17-1.71-.42-3.06-.74-4.05-.32-1-.86-1.71-1.63-2.12-.77-.42-1.92-.63-3.45-.63h-3.6c-.98,0-1.73.08-2.23.24s-.85.49-1.02,1c-.17.51-.26,1.29-.26,2.36v21.51c0,1.04.09,1.82.26,2.34.17.52.51.86,1.02,1.02.51.16,1.25.24,2.23.24h3.17c1.82,0,3.2-.25,4.14-.74.94-.49,1.62-1.29,2.04-2.41.42-1.11.73-2.62.93-4.53h1c-.09.78-.13,1.82-.13,3.12,0,.55.02,1.34.06,2.36.04,1.03.12,2.09.24,3.19-1.47-.06-3.14-.09-4.99-.11s-3.5-.02-4.94-.02h-2.45c-1,0-2.08,0-3.23.02-1.16.01-2.33.03-3.51.04-1.19.02-2.31.04-3.38.07v-.87c.98-.06,1.73-.17,2.23-.35.51-.17.85-.52,1.02-1.04s.26-1.3.26-2.34V10.93c0-1.07-.09-1.86-.26-2.36-.17-.5-.51-.85-1.02-1.04-.51-.19-1.25-.3-2.23-.33v-.87c1.07.03,2.2.05,3.38.07s2.36.03,3.51.04c1.16.01,2.23.02,3.23.02h2.45c1.33,0,2.84,0,4.53-.02,1.69-.01,3.2-.05,4.53-.11ZM439.55,21.16v.87h-7.94v-.87h7.94ZM440.81,15.44c-.12,1.65-.17,2.91-.15,3.77s.02,1.66.02,2.39.01,1.52.04,2.38c.03.87.1,2.12.22,3.77h-1c-.12-.92-.25-1.83-.41-2.71-.16-.88-.51-1.6-1.04-2.17-.54-.56-1.44-.85-2.71-.85v-.87c.95,0,1.68-.2,2.19-.59.5-.39.87-.89,1.11-1.5s.39-1.24.48-1.89c.09-.65.17-1.24.26-1.76h1Z"/>
          <path class="cls-1" d="M475.63,6.33c-.12,1.1-.2,2.16-.24,3.19-.04,1.03-.07,1.82-.07,2.36,0,.69.01,1.34.04,1.95.03.61.06,1.14.09,1.6h-1c-.2-2.02-.48-3.62-.82-4.79-.35-1.17-.95-2.02-1.82-2.54s-2.21-.78-4.03-.78h-2.34v24.68c0,1.16.11,2.02.33,2.6.22.58.64.97,1.28,1.17.64.2,1.56.33,2.78.39v.87c-.75-.06-1.71-.09-2.86-.11s-2.33-.02-3.51-.02c-1.3,0-2.52,0-3.67.02-1.14.01-2.06.05-2.75.11v-.87c1.21-.06,2.14-.19,2.78-.39.64-.2,1.06-.59,1.28-1.17.22-.58.33-1.45.33-2.6V7.33h-2.34c-1.79,0-3.13.26-4.01.78s-1.5,1.37-1.84,2.54-.62,2.77-.82,4.79h-1c.06-.46.09-1,.11-1.6.01-.61.02-1.26.02-1.95,0-.55-.02-1.34-.07-2.36-.04-1.03-.12-2.09-.24-3.19,1.21.03,2.54.06,3.97.09,1.43.03,2.87.04,4.31.04h7.87c1.43,0,2.87-.01,4.32-.04,1.45-.03,2.76-.06,3.95-.09Z"/>
        </g>
      </g>
    </g>
  </g>
</svg>